<svg xmlns="http://www.w3.org/2000/svg" xmlns:cc="http://creativecommons.org/ns#" xmlns:dc="http://purl.org/dc/elements/1.1/" xmlns:ev="http://www.w3.org/2001/xml-events" xmlns:inkscape="http://www.inkscape.org/namespaces/inkscape" xmlns:rdf="http://www.w3.org/1999/02/22-rdf-syntax-ns#" xmlns:sodipodi="http://sodipodi.sourceforge.net/DTD/sodipodi-0.dtd" xmlns:xlink="http://www.w3.org/1999/xlink" baseProfile="tiny" height="14.8cm" version="1.2" viewBox="0 0 396.85039370078744 559.3700787401575" width="10.5cm">
  <metadata>
    <rdf:RDF>
      <cc:Work>
        <dc:format>image/svg+xml</dc:format>
        <dc:source>vpype read ./output/simonp.svg layout --fit-to-margins 1cm --valign top a6 linemerge --tolerance 0.1mm linesort reloop linesimplify write --page-size a6 --center ./optimized/simonp.svg
</dc:source>
        <dc:date>2022-02-25T15:52:59.392342</dc:date>
      </cc:Work>
    </rdf:RDF>
  </metadata>
  <defs/>
  <g fill="none" id="layer1" inkscape:groupmode="layer" inkscape:label="1" stroke="#00f" style="display:inline">
    <polyline points="336.5669,462.9816 315.1496,462.9816 293.0184,464.0525 270.5302,463.6955 259.1076,464.0525 248.042,463.6955 224.8399,463.6955 201.9948,464.4094 190.9291,465.8373 156.3045,466.5512 144.5249,467.2651 132.0315,467.622 108.4724,469.0499 83.8425,469.7638 37.7953,473.3333"/>
    <polyline points="49.5748,479.0446 59.5696,467.979 93.4803,434.4252 104.5459,423.0026"/>
    <line x1="96.6929" x2="84.5564" y1="415.5066" y2="426.2152"/>
    <line x1="73.4908" x2="62.0682" y1="431.5696" y2="442.9921"/>
    <line x1="61.7113" x2="96.6929" y1="434.4252" y2="400.1575"/>
    <polyline points="105.6168,411.937 82.7717,433.7113 49.9318,467.2651"/>
    <polyline points="49.2178,459.0551 60.9974,459.0551 84.5564,457.9843 95.979,456.9134 107.4016,456.9134 130.9606,458.3412 142.7402,458.6982 165.9423,458.6982 176.6509,458.3412 188.0735,457.2703 198.7822,456.1995 209.1339,454.4147 243.7585,452.273 255.1811,451.916 278.0262,452.273 289.8058,451.916 313.0079,450.4882 336.21,450.4882 347.9895,449.7743"/>
    <line x1="337.9948" x2="315.1496" y1="443.706" y2="465.4803"/>
    <line x1="311.5801" x2="323.0026" y1="465.8373" y2="466.1942"/>
    <line x1="323.7165" x2="312.294" y1="455.4856" y2="455.4856"/>
    <line x1="313.7218" x2="337.2808" y1="454.7717" y2="432.9974"/>
    <polyline points="345.8478,437.2808 335.1391,437.6378 311.2231,437.2808 278.0262,439.4226 266.2467,439.4226 232.336,442.6352 208.7769,445.4908 185.9318,446.5617 174.8661,447.6325 163.4436,447.2756 140.2415,447.9895 97.4068,447.6325 75.2756,449.0604 52.4304,449.0604"/>
    <polyline points="52.4304,436.9239 63.853,436.5669 75.2756,436.9239 97.4068,436.21 141.3123,432.9974 152.021,432.9974 174.5092,431.9265 185.9318,431.9265 231.979,430.4987 255.1811,429.0709 266.9606,428.7139 278.3832,427.643 289.8058,427.2861 301.5853,427.643 336.9239,427.2861 347.6325,426.5722"/>
    <polyline points="348.3465,415.5066 336.5669,415.8635 325.5013,417.6483 291.9475,420.8609 280.8819,420.8609 269.1024,421.5748 256.9659,421.9318 245.1864,421.5748 233.4068,420.5039 185.9318,419.0761 163.0866,419.0761 141.3123,420.147 119.895,420.147 85.2703,422.2887 62.4252,424.4304 50.6457,424.7874"/>
    <polyline points="48.8609,415.1496 82.4147,413.0079 94.5512,411.937 106.3307,410.5092 118.4672,410.1522 130.9606,409.0814 155.5906,407.6535 178.4357,407.6535 210.9186,406.5827 221.9843,406.9396 257.6798,409.0814 280.8819,408.3675 303.3701,408.7244 335.1391,406.2257 346.2047,406.2257"/>
    <polyline points="337.9948,411.2231 326.2152,421.9318 314.7927,432.9974"/>
    <line x1="313.7218" x2="324.7874" y1="429.0709" y2="428.357"/>
    <line x1="314.4357" x2="337.2808" y1="422.2887" y2="399.8005"/>
    <polyline points="339.4226,389.0919 327.643,399.4436 315.8635,410.5092"/>
    <polyline points="302.2992,410.5092 290.8766,421.5748 269.4593,444.7769 258.3937,456.1995 246.6142,466.9081 235.1916,478.3307 222.6982,489.3963"/>
    <polyline points="211.6325,488.3255 222.3412,477.2598 245.5433,454.4147 256.6089,442.6352 311.937,390.5197"/>
    <polyline points="313.0079,377.3123 301.9423,388.7349 290.5197,399.4436 255.895,434.4252 222.3412,465.8373 211.2756,476.5459 200.5669,487.6115"/>
    <line x1="199.853" x2="222.6982" y1="477.2598" y2="475.832"/>
    <polyline points="235.1916,487.2546 269.8163,454.4147 280.8819,443.3491 301.9423,420.8609"/>
    <polyline points="301.5853,433.3543 278.7402,456.5564 256.252,478.6877 245.1864,489.0394"/>
    <polyline points="258.0367,491.1811 269.4593,480.8294 304.4409,446.5617"/>
    <line x1="312.6509" x2="324.4304" y1="441.9213" y2="441.5643"/>
    <line x1="314.0787" x2="336.21" y1="442.6352" y2="421.2178"/>
    <polyline points="347.6325,395.1601 306.2257,396.5879 294.8031,397.6588 224.4829,396.9449 201.6378,397.6588 179.5066,399.4436 168.084,399.0866 144.5249,399.8005 71.706,400.1575 60.6404,400.8714"/>
    <line x1="63.4961" x2="75.6325" y1="409.4383" y2="398.3727"/>
    <line x1="75.2756" x2="64.21" y1="409.7953" y2="420.8609"/>
    <polyline points="59.9265,389.0919 83.8425,389.4488 119.5381,388.378 143.0971,389.4488 154.5197,389.4488 176.6509,388.378 199.853,388.7349 234.4777,387.664 246.2572,386.9501 270.5302,386.5932 282.3097,385.5223 293.7323,385.1654 304.4409,385.5223 315.1496,385.1654 336.21,383.7375"/>
    <polyline points="335.1391,378.7402 346.5617,366.9606 358.3412,355.895"/>
    <polyline points="359.0551,359.4646 337.9948,361.2493 281.5958,361.6063 258.7507,363.3911 187.3596,364.4619 143.0971,366.2467 120.6089,366.2467 85.2703,367.3176 73.8478,367.3176"/>
    <polyline points="74.5617,354.1102 142.0262,354.4672 197.7113,353.0394 221.6273,353.3963 244.4724,354.4672 256.252,354.4672 268.0315,353.7533 290.5197,354.1102 313.7218,353.0394 324.7874,351.6115 347.6325,350.1837 358.6982,349.8268"/>
    <line x1="349.0604" x2="337.2808" y1="348.399" y2="348.399"/>
    <line x1="345.8478" x2="322.2887" y1="345.5433" y2="368.0315"/>
    <polyline points="315.1496,365.5328 291.5906,388.021 267.6745,408.7244 255.895,419.79 221.9843,454.4147 198.7822,476.189"/>
    <line x1="188.4304" x2="211.9895" y1="480.4724" y2="457.2703"/>
    <line x1="208.4199" x2="185.2178" y1="464.0525" y2="464.7664"/>
    <polyline points="189.8583,468.336 201.6378,457.9843 213.0604,446.9186"/>
    <polyline points="223.0551,441.9213 234.4777,431.2126 245.5433,419.79 257.3228,409.4383 268.3885,399.0866 291.5906,376.2415 303.3701,365.1759"/>
    <polyline points="303.727,353.0394 266.6037,387.3071 254.4672,399.0866 242.6877,411.2231 220.1995,432.9974"/>
    <polyline points="213.4173,432.9974 201.9948,443.706 190.5722,455.4856 178.7927,466.9081"/>
    <line x1="179.5066" x2="202.7087" y1="456.9134" y2="434.7822"/>
    <line x1="198.7822" x2="176.6509" y1="421.9318" y2="444.4199"/>
    <polyline points="164.1575,445.8478 175.5801,434.7822 197.3543,412.6509"/>
    <polyline points="201.6378,399.0866 177.7218,421.9318 165.9423,433.7113"/>
    <line x1="161.3018" x2="172.3675" y1="423.0026" y2="411.5801"/>
    <polyline points="177.0079,401.2283 165.5853,412.294 153.8058,423.0026"/>
    <line x1="141.3123" x2="119.1811" y1="421.5748" y2="443.706"/>
    <line x1="130.2467" x2="142.0262" y1="444.7769" y2="433.3543"/>
    <line x1="140.2415" x2="128.8189" y1="447.2756" y2="458.3412"/>
    <line x1="129.5328" x2="153.8058" y1="463.6955" y2="464.7664"/>
    <line x1="152.7349" x2="130.2467" y1="469.0499" y2="491.1811"/>
    <line x1="142.3832" x2="165.5853" y1="489.0394" y2="489.3963"/>
    <line x1="162.3727" x2="174.5092" y1="491.895" y2="480.8294"/>
    <line x1="165.9423" x2="154.5197" y1="480.4724" y2="491.1811"/>
    <line x1="143.4541" x2="165.5853" y1="489.3963" y2="467.2651"/>
    <line x1="153.0919" x2="140.9554" y1="477.6168" y2="477.9738"/>
    <polyline points="128.105,476.9029 139.1706,465.4803 150.5932,454.4147"/>
    <line x1="151.3071" x2="128.4619" y1="445.4908" y2="467.979"/>
    <line x1="98.4777" x2="87.769" y1="468.6929" y2="479.7585"/>
    <line x1="74.9186" x2="97.0499" y1="481.1864" y2="458.6982"/>
    <line x1="84.1995" x2="51.0026" y1="454.7717" y2="488.3255"/>
    <polyline points="48.5039,483.3281 59.5696,482.9711 106.6877,482.9711 129.8898,482.2572 141.3123,481.5433 152.378,480.4724 175.937,479.7585 187.7165,480.1155 199.853,479.7585 212.3465,479.0446 235.1916,478.3307 269.1024,475.832 279.811,475.832 303.0131,474.0472 336.21,472.9764"/>
    <polyline points="336.9239,467.2651 325.5013,477.9738 314.0787,489.3963"/>
    <line x1="326.5722" x2="337.6378" y1="490.1102" y2="479.0446"/>
    <polyline points="336.9239,454.4147 324.7874,465.4803 313.0079,476.9029"/>
    <line x1="302.6562" x2="290.8766" y1="480.8294" y2="492.252"/>
    <line x1="279.4541" x2="303.0131" y1="490.1102" y2="468.6929"/>
    <line x1="304.4409" x2="268.3885" y1="456.9134" y2="490.1102"/>
    <line x1="269.4593" x2="280.8819" y1="416.2205" y2="416.5774"/>
    <line x1="281.5958" x2="270.1732" y1="408.3675" y2="408.7244"/>
    <line x1="268.3885" x2="279.4541" y1="400.5144" y2="400.1575"/>
    <line x1="280.168" x2="268.7454" y1="386.5932" y2="387.664"/>
    <polyline points="243.0446,386.2362 254.8241,374.4567 267.3176,363.3911 290.5197,341.2598 301.2283,329.4803"/>
    <polyline points="291.5906,329.8373 279.811,340.9029 268.3885,352.6824 257.3228,364.105 246.9711,375.8845 236.2625,386.9501 224.4829,398.3727 212.3465,409.4383"/>
    <line x1="210.2047" x2="222.3412" y1="399.0866" y2="388.7349"/>
    <line x1="209.4908" x2="244.1155" y1="389.4488" y2="356.252"/>
    <line x1="253.7533" x2="286.9501" y1="340.189" y2="308.7769"/>
    <polyline points="277.6693,304.4934 255.1811,327.3386 244.4724,338.7612 222.6982,362.3202 202.3517,385.8793 191.643,397.3018"/>
    <line x1="188.4304" x2="209.8478" y1="388.7349" y2="365.8898"/>
    <line x1="223.0551" x2="245.5433" y1="354.1102" y2="332.6929"/>
    <polyline points="233.7638,328.4094 221.9843,339.4751 199.4961,363.0341 175.937,386.9501"/>
    <polyline points="173.0814,378.0262 184.8609,367.6745 218.4147,334.4777"/>
    <polyline points="207.3491,332.336 195.9265,343.0446 174.8661,364.4619"/>
    <polyline points="164.8714,362.3202 175.5801,350.5407 198.0682,329.8373 208.7769,319.4856 230.5512,296.6404"/>
    <polyline points="233.7638,280.2205 208.7769,279.8635 185.2178,280.5774"/>
    <line x1="185.9318" x2="197.7113" y1="272.7244" y2="272.0105"/>
    <line x1="199.853" x2="189.1444" y1="262.3727" y2="262.7297"/>
    <polyline points="175.937,262.7297 187.7165,251.664 209.4908,228.105"/>
    <polyline points="202.3517,219.5381 190.5722,230.9606 178.7927,241.6693"/>
    <polyline points="178.0787,250.2362 189.8583,238.4567 213.0604,216.3255"/>
    <polyline points="223.0551,206.3307 199.1391,204.9029 188.0735,204.5459 155.5906,205.6168 144.5249,205.6168"/>
    <polyline points="144.8819,195.979 179.5066,195.2651 190.5722,193.8373 213.4173,193.1234 236.6194,193.1234 247.685,193.4803 259.1076,193.1234 281.5958,193.4803 292.6614,193.1234"/>
    <polyline points="291.9475,180.9869 269.8163,181.3438 258.7507,182.4147 246.6142,182.4147 223.4121,184.5564 200.9239,185.6273 178.7927,183.8425 167.3701,183.4856 144.8819,184.5564"/>
    <line x1="143.0971" x2="166.2992" y1="183.4856" y2="161.7113"/>
    <polyline points="176.294,161.3543 154.1627,184.1995 143.0971,194.5512"/>
    <polyline points="153.0919,192.0525 175.5801,170.9921 186.6457,159.9265"/>
    <polyline points="200.21,161.7113 188.7874,172.4199 177.7218,183.4856 154.1627,204.189"/>
    <polyline points="154.5197,216.6824 167.3701,205.9738 201.6378,174.2047"/>
    <polyline points="201.6378,177.7743 189.5013,178.8451 165.5853,179.2021"/>
    <polyline points="167.3701,190.9816 178.4357,190.2677 188.7874,189.1969 211.2756,187.769"/>
    <polyline points="213.4173,194.5512 200.9239,205.6168 189.1444,217.0394"/>
    <line x1="188.4304" x2="199.853" y1="202.7612" y2="202.4042"/>
    <line x1="176.6509" x2="210.9186" y1="205.2598" y2="172.7769"/>
    <polyline points="222.3412,174.2047 210.5617,185.2703 165.2283,225.6063"/>
    <polyline points="163.8005,233.1024 187.7165,232.3885 210.2047,230.9606 233.4068,228.8189 255.895,227.3911 268.0315,225.9633"/>
    <polyline points="257.6798,225.9633 246.6142,237.3858 234.8346,248.8084 211.2756,270.5827 199.4961,282.7192 176.294,304.4934 164.8714,315.916 154.1627,328.0525 143.0971,339.4751 131.3176,350.1837"/>
    <polyline points="132.3885,338.0472 166.2992,304.8504 177.0079,293.7848 211.6325,261.3018 235.1916,239.8845 246.2572,229.1759"/>
    <polyline points="234.1207,229.8898 222.6982,241.3123 210.2047,251.664 174.1522,284.5039 152.7349,306.2782 117.7533,339.832"/>
    <polyline points="117.7533,325.9108 128.8189,314.4882 139.8845,304.1365 163.0866,284.5039 196.9974,252.7349 221.2703,232.7454"/>
    <line x1="222.3412" x2="211.2756" y1="238.4567" y2="239.1706"/>
    <polyline points="221.6273,246.6667 209.8478,247.3806 185.9318,248.0945"/>
    <polyline points="175.5801,252.7349 187.0026,252.378 198.0682,251.3071 221.9843,250.2362 233.4068,249.1654 245.5433,248.8084 257.3228,249.1654 293.0184,248.8084"/>
    <line x1="303.727" x2="292.3045" y1="261.6588" y2="272.7244"/>
    <line x1="299.8005" x2="289.0919" y1="272.7244" y2="284.147"/>
    <line x1="302.2992" x2="313.3648" y1="285.9318" y2="274.8661"/>
    <line x1="315.1496" x2="303.727" y1="284.8609" y2="296.2835"/>
    <polyline points="300.1575,309.1339 311.5801,297.7113 323.3596,286.6457"/>
    <polyline points="335.4961,287.3596 324.7874,288.0735 283.3806,289.5013 271.958,290.5722"/>
    <line x1="277.3123" x2="265.8898" y1="295.9265" y2="306.9921"/>
    <polyline points="255.1811,310.9186 266.9606,310.5617 290.1627,309.1339 313.3648,309.1339 325.1444,308.4199 348.7034,308.4199"/>
    <polyline points="347.2756,313.0604 336.21,312.7034 313.7218,313.7743 301.5853,315.2021 279.0971,316.6299 255.895,318.7717 233.4068,320.1995 198.0682,321.2703 186.2887,321.2703 152.7349,323.4121 106.3307,323.4121 94.5512,323.769"/>
    <polyline points="107.0446,313.7743 129.5328,311.6325 154.1627,310.9186 165.5853,310.9186 188.7874,309.8478 222.6982,311.2756 234.1207,310.9186 245.1864,309.8478"/>
    <polyline points="247.3281,296.2835 224.4829,296.6404 212.7034,298.0682 177.0079,298.7822 152.021,299.853 129.1759,301.2808 117.7533,301.2808"/>
    <polyline points="129.1759,288.0735 140.2415,288.0735 163.8005,287.3596 187.7165,286.2887 199.1391,286.2887 221.9843,285.2178 233.7638,285.5748 245.5433,284.8609"/>
    <polyline points="255.1811,298.0682 288.378,295.9265 312.294,296.2835 346.2047,295.5696"/>
    <polyline points="336.21,298.7822 324.7874,309.1339 313.7218,319.8425"/>
    <polyline points="317.2913,327.3386 329.0709,316.273 339.7795,304.8504"/>
    <line x1="340.1365" x2="328.7139" y1="320.1995" y2="331.622"/>
    <polyline points="324.7874,343.7585 336.5669,333.4068 347.9895,322.6982"/>
    <polyline points="346.9186,331.2651 335.4961,343.4016 323.3596,354.8241"/>
    <line x1="338.7087" x2="349.7743" y1="360.8924" y2="360.5354"/>
    <line x1="345.8478" x2="323.3596" y1="357.3228" y2="379.4541"/>
    <polyline points="339.0656,370.1732 303.727,369.1024 292.3045,370.1732 281.5958,370.5302 224.4829,374.0997 212.3465,375.1706 188.4304,375.5276 177.0079,376.2415 153.8058,375.8845 117.0394,378.3832 82.4147,379.4541 70.6352,380.168"/>
    <line x1="96.336" x2="106.6877" y1="366.6037" y2="355.1811"/>
    <line x1="97.7638" x2="85.9843" y1="340.189" y2="351.2546"/>
    <polyline points="71.3491,345.5433 107.0446,343.0446 153.8058,342.3307 176.6509,341.6168 199.1391,340.189 221.9843,339.832 245.5433,340.189 268.7454,339.1181 303.0131,340.5459 325.1444,338.7612 347.6325,338.4042 358.6982,337.6903"/>
    <polyline points="358.6982,324.126 324.7874,323.4121 302.2992,324.4829 279.4541,325.1969 268.3885,325.1969 223.0551,328.4094 212.7034,329.4803 189.5013,330.9081 165.2283,331.622 140.9554,333.4068 128.8189,333.7638 104.9029,333.4068 93.8373,333.7638 82.4147,334.8346"/>
    <polyline points="119.895,319.8425 130.2467,307.3491 140.9554,295.5696 151.3071,284.5039 162.7297,273.4383"/>
    <polyline points="167.0131,265.9423 178.7927,265.5853 201.2808,265.5853 211.9895,265.9423 222.6982,265.2283 233.7638,265.5853 244.4724,265.2283 266.9606,263.8005 289.4488,263.4436 312.294,262.0157 324.0735,260.5879"/>
    <polyline points="336.5669,270.2257 313.7218,270.9396 302.6562,272.7244 269.1024,275.937 258.0367,275.937 234.1207,277.0079 222.3412,276.6509 210.5617,275.5801 163.0866,274.1522 140.2415,274.1522"/>
    <line x1="140.5984" x2="174.5092" y1="304.4934" y2="303.7795"/>
    <polyline points="185.9318,317.7008 163.0866,318.7717 152.021,319.8425 140.5984,319.4856"/>
    <polyline points="143.0971,330.9081 153.8058,330.5512 165.2283,329.4803"/>
    <line x1="184.8609" x2="196.2835" y1="325.9108" y2="324.8399"/>
    <polyline points="213.0604,271.6535 224.126,270.5827 235.1916,270.2257"/>
    <polyline points="230.5512,264.1575 219.1286,275.2231 198.0682,296.6404 187.3596,307.706 177.0079,319.1286 166.6562,329.4803 144.168,350.1837"/>
    <polyline points="142.0262,362.6772 153.4488,350.8976 186.6457,319.1286 219.4856,286.6457 241.9738,263.4436 253.7533,252.021"/>
    <line x1="244.1155" x2="255.895" y1="252.021" y2="240.5984"/>
    <polyline points="266.9606,239.1706 256.252,238.8136 233.7638,239.8845 223.0551,241.3123 210.9186,241.6693 199.4961,243.4541 177.0079,245.9528 165.5853,246.3097"/>
    <line x1="167.0131" x2="178.4357" y1="241.3123" y2="229.5328"/>
    <polyline points="153.0919,218.8241 164.8714,218.1102 187.7165,217.7533 211.2756,218.1102 234.4777,217.0394 268.7454,218.4672 280.168,217.3963"/>
    <polyline points="279.811,207.7585 246.2572,210.9711 235.1916,210.9711"/>
    <line x1="233.4068" x2="266.9606" y1="205.2598" y2="170.2782"/>
    <polyline points="258.3937,170.6352 246.9711,182.0577 235.5486,192.7664 235.1916,192.7664 257.6798,193.1234"/>
    <line x1="255.5381" x2="244.1155" y1="200.2625" y2="200.6194"/>
    <polyline points="243.7585,203.832 255.1811,192.7664 288.021,159.2126"/>
    <polyline points="289.8058,158.1417 256.6089,158.1417 245.1864,158.8556 212.3465,159.9265 165.5853,160.2835 141.6693,161.7113"/>
    <polyline points="139.5276,155.643 163.0866,133.5118 174.5092,121.3753 185.9318,110.3097 208.7769,88.8924 233.0499,67.1181"/>
    <polyline points="223.769,70.3307 212.3465,81.7533 188.4304,103.8845 163.8005,124.231 152.021,134.9396 139.5276,145.6483"/>
    <line x1="142.7402" x2="153.4488" y1="143.8635" y2="143.8635"/>
    <line x1="152.378" x2="140.9554" y1="154.2152" y2="154.9291"/>
    <polyline points="130.6037,150.6457 142.3832,149.9318 153.8058,148.8609 210.2047,147.0761 221.2703,147.0761 255.5381,146.0052 266.6037,144.9344 290.5197,143.8635"/>
    <line x1="290.5197" x2="279.4541" y1="142.0787" y2="142.4357"/>
    <line x1="287.3071" x2="276.2415" y1="147.79" y2="158.4987"/>
    <line x1="266.9606" x2="290.8766" y1="157.0709" y2="135.6535"/>
    <polyline points="290.8766,134.5827 278.7402,135.2966 255.5381,135.6535 220.9134,136.7244 198.0682,136.7244 186.6457,136.3675 175.937,136.7244 154.8766,136.7244 143.811,136.3675 132.3885,136.7244"/>
    <polyline points="141.6693,136.0105 153.4488,124.5879 177.3648,103.8845 188.7874,92.8189 212.3465,71.4016"/>
    <line x1="210.9186" x2="221.9843" y1="76.042" y2="76.042"/>
    <polyline points="233.0499,78.8976 221.6273,90.6772 198.4252,113.5223 175.5801,135.2966"/>
    <polyline points="176.294,143.8635 188.4304,133.1549 200.21,122.0892 211.9895,110.3097 245.1864,78.1837"/>
    <polyline points="245.1864,70.6877 233.7638,70.3307 210.9186,71.4016 199.1391,71.4016 175.937,70.3307"/>
    <polyline points="178.4357,79.2546 166.6562,89.9633 143.4541,112.4514"/>
    <polyline points="140.2415,116.378 152.021,116.378 186.6457,115.3071 198.0682,115.3071 219.4856,112.8084 230.5512,112.0945 277.3123,110.6667 289.8058,110.6667"/>
    <polyline points="289.0919,112.0945 278.0262,122.8031 266.2467,133.5118"/>
    <polyline points="270.8871,135.2966 281.5958,135.6535 292.3045,135.2966"/>
    <polyline points="288.378,124.9449 276.9554,135.2966 266.2467,146.3622"/>
    <polyline points="258.0367,161.7113 246.6142,172.7769 223.0551,194.1942"/>
    <line x1="224.8399" x2="236.2625" y1="182.0577" y2="170.9921"/>
    <polyline points="236.2625,179.5591 247.685,179.916 269.8163,179.5591"/>
    <polyline points="290.1627,171.706 268.0315,172.063 245.5433,173.1339 211.2756,172.7769 176.6509,171.706 143.0971,173.8478"/>
    <polyline points="143.811,173.4908 155.2336,162.7822 165.9423,151.7165"/>
    <polyline points="163.0866,131.0131 152.021,132.084 140.9554,132.4409"/>
    <polyline points="142.7402,124.9449 176.294,91.0341 187.0026,78.8976 197.7113,67.832"/>
    <polyline points="175.5801,88.1785 210.2047,87.4646 234.4777,85.6798 245.5433,85.6798"/>
    <polyline points="256.9659,80.6824 233.7638,103.5276 221.9843,114.5932 210.5617,124.5879 198.7822,134.2257 187.0026,145.2913"/>
    <polyline points="200.21,146.7192 211.6325,135.6535 233.7638,113.1654 245.5433,103.1706 256.9659,92.8189"/>
    <line x1="263.3911" x2="231.2651" y1="93.8898" y2="127.0866"/>
    <polyline points="230.1942,116.7349 207.706,117.4488 174.1522,119.9475 140.2415,121.3753"/>
    <polyline points="128.8189,127.4436 140.9554,127.0866 165.2283,125.6588 177.7218,125.3018 200.9239,125.3018 244.4724,123.874 267.6745,124.9449 279.4541,124.9449 302.2992,123.874"/>
    <line x1="280.5249" x2="268.3885" y1="122.0892" y2="123.1601"/>
    <line x1="270.1732" x2="281.9528" y1="126.0157" y2="114.9501"/>
    <polyline points="271.958,109.9528 201.6378,109.2388 178.7927,109.9528 156.6614,111.7375"/>
    <polyline points="164.5144,99.601 235.9055,98.5302 258.7507,96.7454 270.1732,96.7454"/>
    <polyline points="266.9606,105.3123 255.5381,116.021 244.1155,126.0157"/>
    <line x1="258.3937" x2="280.168" y1="125.3018" y2="103.8845"/>
    <polyline points="290.8766,101.3858 231.2651,104.9554 219.8425,105.3123 196.6404,104.5984 174.8661,105.6693 164.1575,105.6693 142.0262,104.9554"/>
    <polyline points="141.3123,96.0315 174.8661,94.9606 197.3543,93.8898 220.9134,94.6037 233.0499,94.6037 268.3885,93.1759 279.811,92.105"/>
    <polyline points="267.6745,83.5381 245.1864,83.1811 233.4068,83.895 221.6273,83.895 186.6457,82.4672 163.4436,82.8241"/>
    <line x1="199.1391" x2="210.9186" y1="133.5118" y2="133.8688"/>
    <polyline points="268.7454,251.664 245.5433,272.7244 220.5564,293.7848 208.4199,305.2073 196.9974,316.6299 163.0866,353.0394 152.021,364.105"/>
    <line x1="163.8005" x2="152.378" y1="376.2415" y2="387.3071"/>
    <line x1="153.4488" x2="165.5853" y1="399.4436" y2="388.378"/>
    <line x1="165.5853" x2="153.8058" y1="398.0157" y2="408.7244"/>
    <line x1="143.0971" x2="107.7585" y1="410.8661" y2="444.4199"/>
    <polyline points="95.2651,444.063 105.9738,433.7113 117.7533,423.3596"/>
    <line x1="118.1102" x2="129.5328" y1="409.0814" y2="398.0157"/>
    <line x1="118.4672" x2="129.8898" y1="396.9449" y2="385.8793"/>
    <line x1="117.7533" x2="106.3307" y1="376.5984" y2="388.021"/>
    <line x1="129.8898" x2="142.0262" y1="409.7953" y2="398.7297"/>
    <polyline points="209.4908,420.5039 221.2703,408.7244 233.4068,397.6588"/>
    <polyline points="234.4777,373.3858 245.1864,362.3202 266.6037,341.9738 277.3123,331.2651 289.0919,320.5564"/>
    <polyline points="301.5853,339.832 290.1627,351.6115 267.6745,375.8845 243.4016,398.3727 220.5564,422.2887"/>
    <line x1="313.3648" x2="324.7874" y1="310.9186" y2="299.853"/>
    <line x1="277.3123" x2="265.8898" y1="272.3675" y2="283.79"/>
    <line x1="268.0315" x2="279.4541" y1="273.4383" y2="262.7297"/>
  </g>
<plotdata application="axidraw" model="2" layer="-2" node="0" last_path="0" node_after_path="0" last_known_x="0" last_known_y="0" paused_x="0" paused_y="0" randseed="0" row="0" id="1645800999"/></svg>