<svg xmlns="http://www.w3.org/2000/svg" xmlns:cc="http://creativecommons.org/ns" xmlns:dc="http://purl.org/dc/elements/1.1/" xmlns:ev="http://www.w3.org/2001/xml-events" xmlns:inkscape="http://www.inkscape.org/namespaces/inkscape" xmlns:rdf="http://www.w3.org/1999/02/22-rdf-syntax-ns" xmlns:sodipodi="http://sodipodi.sourceforge.net/DTD/sodipodi-0.dtd" xmlns:xlink="http://www.w3.org/1999/xlink" baseProfile="tiny" height="14.8cm" version="1.2" viewBox="0 0 377.9527559055118 559.3700787401575" width="10.0cm">
  <metadata>
    <rdf:RDF>
      <cc:Work>
        <dc:format>image/svg+xml</dc:format>
        <dc:source>vpype read './output/Photo on 28-04-2022 at 17.23.svg' layout --fit-to-margins 0mm 99x148mm linemerge --tolerance 0.1mm linesort reloop linesimplify write --page-size 100x148mm './optimized/Photo on 28-04-2022 at 17.23.svg'
</dc:source>
        <dc:date>2022-04-28T17:24:24.892908</dc:date>
      </cc:Work>
    </rdf:RDF>
  </metadata>
  <defs/>
  <g fill="none" id="layer1" inkscape:groupmode="layer" inkscape:label="1" stroke="#000000" stroke-width="2.0" style="display:inline">
    <polyline points="238.2507,58.2316 225.1218,48.9642 217.0127,53.2118 207.7453,43.9443"/>
    <polyline points="194.2303,40.469 203.4977,41.6275 212.7652,47.8058 222.0326,55.1425 228.5971,50.8949 247.132,65.1822 265.2807,72.519 274.5482,80.2418"/>
    <polyline points="262.5777,69.8159 274.162,79.0834 282.271,88.3508 289.2216,106.8857 284.2018,116.5393 287.2909,125.8068 284.5879,135.4604 283.4295,145.114 281.1126,154.3814 285.7463,163.6489 286.9048,172.9163 287.2909,179.0946 281.8849,187.9759 277.6373,189.1343 278.7957,198.4018 273.0036,207.2831 270.3006,227.7487 270.3006,255.5511 272.6174,274.4721 286.9048,283.7395 285.7463,293.3931 282.271,302.6606 279.9542,311.928 274.162,321.1955 267.5976,330.4629 254.8548,339.7304"/>
    <polyline points="277.6373,312.7003 268.3699,325.8292 259.1024,335.4828 249.835,342.4334 240.5675,347.0671 231.3001,349.384 222.0326,350.5424 212.7652,350.5424"/>
    <polyline points="198.4779,357.8791 189.2104,358.6514 179.943,356.3346"/>
    <polyline points="175.3092,342.0472 168.7448,337.4135 160.6358,328.1461 155.6159,318.8786 153.299,309.9973 153.299,300.3437 152.1406,291.4624 151.7545,276.0167 144.0316,266.3631 139.3979,256.7095 137.4672,247.442 136.6949,238.1746 133.9919,228.9071 125.8828,220.0258 127.0413,210.7584 124.7244,201.8771 123.566,192.6096 123.566,182.956 122.7937,173.6886 123.9521,164.4212 120.4768,155.5398 115.8431,146.2724 115.8431,137.0049 112.754,118.0839 109.2787,108.4303 113.5262,99.1629 119.3184,94.5291 127.4274,80.628 142.1009,62.4792 153.6852,55.5286 164.1111,46.2612 178.3984,36.9937 185.349,33.5184 178.7845,36.9937 169.5171,42.7859 160.2496,49.7365 151.3683,55.5286 123.9521,83.331"/>
    <polyline points="123.9521,75.9942 121.6353,85.2617 118.16,94.5291"/>
    <line x1="115.457" x2="124.7244" y1="143.1832" y2="166.3519"/>
    <polyline points="141.7147,149.7477 144.0316,159.0151 144.8039,168.2826 148.2792,169.441 157.5466,173.3025 166.8141,172.144 175.6954,173.3025 184.9628,182.5699 201.1809,173.3025 211.9929,167.5103 221.2603,166.3519"/>
    <polyline points="206.5869,167.5103 199.6363,176.7777 198.864,186.4313 196.9333,195.3126 196.9333,204.1939 195.0026,213.4614 196.9333,222.7288 196.9333,231.9963 192.2996,231.9963"/>
    <polyline points="186.5074,230.0656 186.8935,221.1843 186.5074,211.9168 185.349,202.6494 186.5074,192.9958 186.5074,183.7283 179.5568,174.4609"/>
    <polyline points="164.4972,192.2235 155.6159,195.6988 146.3485,195.6988"/>
    <polyline points="156.3882,200.7187 165.6556,199.5602 174.5369,193.7681 181.4875,197.6295 178.0122,200.3325 180.3291,208.4415 176.0815,217.709 166.8141,227.3626 158.7051,233.1547 167.9725,224.2734 177.24,217.3228"/>
    <polyline points="204.6562,213.8475 213.9236,215.006 223.191,220.7981 232.8446,225.4319"/>
    <line x1="226.2802" x2="212.379" y1="223.8873" y2="214.6198"/>
    <line x1="210.0622" x2="211.2206" y1="218.8674" y2="228.521"/>
    <line x1="207.7453" x2="207.7453" y1="228.521" y2="219.2536"/>
    <polyline points="205.4284,191.8374 214.6959,196.4711 224.3495,196.4711"/>
    <polyline points="250.6072,184.5006 241.3398,191.8374 233.6169,200.3325 237.0922,198.0157 249.0627,188.7482 258.3301,179.0946"/>
    <polyline points="259.8747,179.0946 259.8747,188.7482 257.5578,207.2831 255.241,216.5505"/>
    <polyline points="254.8548,232.7686 238.6368,240.8776 231.6862,247.8282 220.488,257.4818 211.2206,266.7492"/>
    <line x1="201.9531" x2="192.6857" y1="257.4818" y2="259.7986"/>
    <polyline points="188.052,271.7691 176.4677,262.5016 167.2002,253.2342 155.6159,243.9667"/>
    <polyline points="150.596,243.1945 150.2099,252.0758 158.3189,261.3432"/>
    <line x1="157.9328" x2="148.6653" y1="259.0264" y2="246.2836"/>
    <polyline points="147.5069,243.9667 156.7743,243.9667 175.3092,260.5709 184.9628,268.6799 194.2303,273.6998 203.4977,272.5414 212.7652,267.9077 222.0326,256.3233 231.6862,251.6896 242.1121,241.2637 250.9934,238.5607"/>
    <polyline points="247.132,245.1252 243.6567,254.3926 236.3199,262.1155 244.429,248.2143"/>
    <polyline points="264.1223,274.4721 260.2608,283.3534 253.3103,293.007 260.2608,282.5811"/>
    <polyline points="272.2313,273.6998 281.4987,280.6504 279.1819,290.6901 276.0927,291.8486 276.0927,301.116 280.7265,304.5913"/>
    <polyline points="311.2318,293.7793 311.2318,303.0467 314.7071,305.3636"/>
    <line x1="321.6577" x2="312.3902" y1="299.9576" y2="294.1654"/>
    <polyline points="317.024,330.4629 319.3408,348.9978 317.4101,358.2653 323.5884,367.5327 325.9053,377.1863 327.4498,386.4538 328.6083,396.1074 330.1528,405.3748 332.0836,414.6423 342.5094,442.4446 344.054,451.712"/>
    <polyline points="345.5986,438.9693 340.9649,430.088 337.8757,420.8206 330.9251,393.7905 330.9251,384.523 329.7667,375.6417 327.836,366.3743 319.727,361.7406"/>
    <polyline points="354.0938,376.0279 355.2522,385.2953 355.2522,394.5628 357.569,403.8302 358.3413,413.0977 358.3413,422.3651 359.4998,431.6326"/>
    <line x1="348.6877" x2="333.6281" y1="432.4049" y2="417.3453"/>
    <polyline points="348.3016,420.0483 350.6185,429.3157 351.7769,438.5832 355.2522,447.4645 356.7968,456.3458 356.7968,465.2271 354.4799,474.4945 353.3215,483.762 351.0046,494.1879 351.0046,503.8414 349.0739,513.1089 358.3413,518.9011 367.2226,515.4258 374.1732,508.089"/>
    <polyline points="369.9256,523.5348 361.0443,523.5348 352.9353,524.6932 350.6185,519.6733 347.5293,517.3565 347.5293,508.089 348.6877,498.8216 348.3016,489.5541 350.6185,480.6728 351.3908,471.4054 353.7076,462.5241 353.7076,453.2566 351.3908,443.9892 347.9155,434.7217 345.2125,425.4543 348.6877,416.1868"/>
    <polyline points="361.8166,408.8501 359.4998,389.9291 359.1136,371.7803"/>
    <polyline points="369.9256,382.9785 367.9949,392.2459 365.6781,410.7808"/>
    <line x1="365.6781" x2="361.0443" y1="441.6723" y2="450.9398"/>
    <line x1="365.2919" x2="367.6088" y1="451.712" y2="442.8307"/>
    <polyline points="288.8355,462.9102 288.8355,444.3753 289.6078,435.1079 286.1325,428.9296 276.865,427.385 267.2114,427.385 257.944,426.2266 248.6765,425.8404 239.4091,425.8404 230.1416,424.682 220.8742,423.9097 211.6067,422.3651 184.1905,418.8898 175.3092,418.1175 166.0418,418.1175 157.1605,416.573 147.893,414.2561 139.0117,413.0977 129.7443,413.0977"/>
    <polyline points="129.3581,414.2561 127.8136,423.5236 125.4967,442.0585 124.3383,445.1476 133.9919,450.9398 143.2593,450.5536 152.9129,452.8705 208.1314,459.8211 217.0127,462.1379 226.2802,463.2964 235.5476,463.2964 253.6964,465.6132 262.5777,465.6132 281.1126,467.9301"/>
    <polyline points="261.4193,450.1675 259.1024,443.2169 247.5181,440.9 235.9338,439.7416 224.3495,437.4247 212.7652,438.5832 206.973,437.0386 210.4483,435.8802"/>
    <polyline points="223.5772,436.6524 220.1019,445.9199 228.2109,440.1277 237.4784,448.2368 251.3795,449.3952"/>
    <line x1="249.835" x2="242.8844" y1="441.6723" y2="446.306"/>
    <line x1="224.7356" x2="225.8941" y1="448.2368" y2="438.9693"/>
    <polyline points="194.2303,442.0585 188.052,442.0585 186.8935,436.2663 179.943,442.0585 174.9231,442.0585 177.6261,432.791"/>
    <polyline points="188.4381,434.3356 176.8538,434.7217 165.2695,432.4049 145.9623,430.4741 138.6256,435.8802 139.784,426.6127"/>
    <line x1="142.1009" x2="147.893" y1="427.7711" y2="436.6524"/>
    <line x1="153.299" x2="154.0713" y1="438.5832" y2="429.3157"/>
    <line x1="155.6159" x2="157.9328" y1="429.7019" y2="438.9693"/>
    <polyline points="71.8227,460.5934 71.8227,469.8608 72.595,478.7421 72.595,488.0096 72.2089,497.277 73.3673,506.9306 71.8227,516.198 71.4366,525.8516"/>
    <polyline points="64.8721,523.9209 64.8721,505.386 66.0306,496.1186 64.8721,483.3758 67.189,475.653 71.4366,457.8903 71.4366,448.6229 71.0504,439.7416 69.892,430.4741 66.0306,423.5236 67.9613,414.2561"/>
    <polyline points="55.9908,416.1868 55.9908,425.4543 59.8523,435.1079"/>
    <polyline points="60.2384,447.0783 63.7137,437.8109 62.5553,428.5434 63.7137,419.276 67.189,410.3947 67.189,374.4833 66.8029,365.602 66.8029,356.3346"/>
    <polyline points="45.565,347.0671 43.2481,356.3346 44.4065,365.2159 44.4065,374.4833 46.7234,392.6321 49.0402,401.8995 52.1294,429.7019 56.377,438.9693 62.5553,444.7615 63.7137,454.0289 64.486,463.2964 62.1691,472.5638"/>
    <polyline points="62.5553,475.653 62.1691,465.2271 58.6938,456.3458 54.0601,447.0783 52.1294,437.4247 46.3372,428.1573 39.0005,419.276 30.8915,403.0579 30.5054,393.4044 28.9608,384.1369 28.9608,374.4833 29.7331,365.2159 29.7331,355.5623 30.8915,346.2948 37.8421,337.4135"/>
    <polyline points="39.0005,338.1858 34.3668,357.1068 33.9806,366.3743 32.8222,375.6417 35.9114,384.9092 34.7529,394.1766 38.6144,403.4441"/>
    <line x1="36.6836" x2="46.3372" y1="416.9591" y2="427.385"/>
    <polyline points="48.268,423.9097 46.3372,415.0284 43.6342,387.6122 41.7035,377.9586 41.7035,368.6912 40.9312,359.4237 40.9312,350.1563 43.2481,340.8888"/>
    <polyline points="21.624,356.7207 27.4162,342.8195 24.3271,352.4731 22.3963,361.7406 17.7626,380.6616 16.6042,389.9291 14.2873,399.5827 15.8319,408.8501 15.8319,418.1175 10.0397,426.2266 10.0397,435.1079 11.1982,445.5338"/>
    <polyline points="16.218,446.6922 12.3566,449.009 3.8614,439.7416 2.703,430.4741"/>
    <line x1="5.406" x2="14.6735" y1="443.603" y2="449.7813"/>
    <polyline points="7.7229,463.6825 6.5644,472.95 3.8614,482.2174 4.2476,491.4848 4.2476,500.7523 1.5446,519.6733"/>
    <polyline points="8.109,464.0686 44.0204,482.9897 52.1294,489.168 62.5553,491.871"/>
    <polyline points="64.8721,489.168 55.6047,488.0096 46.3372,484.9204 37.0698,480.2867 27.4162,474.4945 18.1488,471.4054 8.8813,465.6132 0.0,458.2765"/>
    <polyline points="45.9511,471.4054 55.6047,480.6728 57.9216,477.1975"/>
    <line x1="58.6938" x2="51.7433" y1="477.1975" y2="470.2469"/>
    <line x1="55.6047" x2="46.3372" y1="467.9301" y2="470.2469"/>
    <polyline points="47.1095,474.8807 56.7631,479.1283 66.0306,486.0788"/>
    <line x1="59.8523" x2="50.5848" y1="466.7717" y2="463.2964"/>
    <polyline points="86.4962,492.2571 89.9715,501.5246 92.2883,510.792 92.6745,520.0595"/>
    <polyline points="267.9837,443.603 269.1421,452.4843 269.1421,443.2169"/>
    <polyline points="174.1508,340.1165 164.8834,330.8491 155.6159,314.631"/>
    <polyline points="150.2099,277.5612 141.3286,280.6504 132.0611,282.9673 122.7937,286.4426"/>
    <line x1="149.4376" x2="140.1702" y1="269.4522" y2="254.3926"/>
    <polyline points="186.8935,289.5317 196.5471,293.007 205.8146,293.007 215.082,286.0564 219.7158,277.9474 213.9236,287.2148"/>
    <polyline points="278.4096,219.2536 269.5283,222.7288 275.3204,209.9861 277.6373,200.7187 270.3006,193.7681 270.3006,189.5205"/>
    <polyline points="277.2512,188.3621 278.4096,195.6988 285.3602,195.6988 283.0433,204.9662 283.4295,214.6198"/>
    <line x1="274.9343" x2="279.568" y1="172.144" y2="162.8766"/>
    <polyline points="278.4096,162.1043 273.7759,171.3717 279.1819,162.1043 285.7463,162.1043"/>
    <polyline points="225.8941,112.6779 216.6266,112.6779 207.3592,111.1333 198.0917,114.6086"/>
    <polyline points="185.7351,123.1038 195.0026,117.3116 176.0815,128.8959 167.2002,123.1038"/>
  </g>
<plotdata application="axidraw" model="2" layer="-2" node="0" last_path="0" node_after_path="0" last_known_x="0" last_known_y="0" paused_x="0" paused_y="0" randseed="0" row="0" id="1651159542"/></svg>