<svg xmlns="http://www.w3.org/2000/svg" xmlns:cc="http://creativecommons.org/ns#" xmlns:dc="http://purl.org/dc/elements/1.1/" xmlns:ev="http://www.w3.org/2001/xml-events" xmlns:inkscape="http://www.inkscape.org/namespaces/inkscape" xmlns:rdf="http://www.w3.org/1999/02/22-rdf-syntax-ns#" xmlns:sodipodi="http://sodipodi.sourceforge.net/DTD/sodipodi-0.dtd" xmlns:xlink="http://www.w3.org/1999/xlink" baseProfile="tiny" height="14.8cm" version="1.2" viewBox="0 0 396.85039370078744 559.3700787401575" width="10.5cm">
  <metadata>
    <rdf:RDF>
      <cc:Work>
        <dc:format>image/svg+xml</dc:format>
        <dc:source>vpype read ./output/p1.svg write --page-size a6 --center ./optimized/p1.svg
</dc:source>
        <dc:date>2022-02-24T11:33:49.542772</dc:date>
      </cc:Work>
    </rdf:RDF>
  </metadata>
  <defs/>
  <g fill="none" id="layer1" inkscape:groupmode="layer" inkscape:label="1" stroke="#00f" style="display:inline">
    <polyline points="-56.8248,24.185 -56.3248,32.185 -56.3248,40.185 -56.3248,48.685 -56.3248,56.685 -55.8248,64.685 -56.3248,72.685 -56.3248,80.185 -56.8248,88.685 -56.8248,96.685 -56.8248,104.685 -56.8248,112.685 -56.3248,120.185 -56.3248,128.185 -56.8248,135.685 -56.8248,143.685 -56.8248,151.185 -56.8248,158.685 -56.3248,166.185 -56.3248,174.685 -56.3248,182.685 -56.3248,190.685 -56.8248,198.685 -56.8248,207.185 -56.8248,215.685 -56.8248,223.685 -56.8248,231.685 -56.8248,239.185 -56.8248,247.185 -56.8248,255.185 -56.8248,263.185 -56.3248,271.185 -56.3248,278.685 -56.3248,287.185 -56.3248,295.185 -56.3248,303.685 -56.3248,311.685 -56.8248,319.685 -57.3248,328.185 -57.8248,336.185 -57.3248,344.685 -57.8248,352.185 -57.3248,359.685 -57.3248,367.185 -57.3248,375.185 -57.8248,383.185 -57.8248,390.685 -57.8248,398.685 -57.8248,406.685 -58.3248,414.685 -57.8248,422.685 -57.8248,430.685 -57.3248,438.185 -57.3248,446.185 -56.8248,454.185 -56.3248,462.185 -56.3248,470.685 -56.3248,478.685 -56.3248,487.185 -55.3248,491.685 -47.3248,490.185 -39.3248,487.185 -31.3248,485.185 -23.3248,482.185 -14.8248,481.685 -6.8248,479.685 1.6752,477.185 9.6752,475.185 17.6752,471.185 25.6752,468.185 33.6752,465.685 41.6752,462.185 49.6752,461.685 57.1752,459.185 64.6752,452.685 72.1752,443.185 80.6752,430.685 88.6752,422.685"/>
    <polyline points="92.1752,427.185 92.1752,435.185 90.1752,443.185 88.6752,450.685 86.6752,458.685 84.6752,466.185 83.1752,474.185 81.6752,482.685 80.6752,490.685 79.6752,499.185 79.6752,507.185 79.6752,515.185 79.6752,523.185 79.6752,530.685 86.1752,535.685 94.1752,535.685 102.1752,535.685 112.1752,535.685 120.6752,535.685 128.6752,535.185 137.1752,535.185 145.1752,535.185 153.1752,535.185 161.1752,535.185 169.1752,535.185 177.1752,534.685 185.1752,534.685 192.6752,534.685 200.6752,534.685 208.1752,534.685 216.1752,534.685 224.1752,534.685 232.1752,534.685 240.1752,534.685 247.6752,534.685 255.6752,534.685 264.1752,534.685 272.6752,534.685 281.1752,535.185 287.6752,532.185 294.6752,519.185"/>
    <line x1="291.6752" x2="287.6752" y1="521.185" y2="529.185"/>
    <line x1="297.1752" x2="298.1752" y1="533.185" y2="525.185"/>
    <polyline points="234.6752,490.685 227.6752,497.185 233.1752,491.685 226.1752,488.185"/>
    <line x1="214.1752" x2="206.6752" y1="500.685" y2="502.685"/>
    <polyline points="212.6752,497.685 204.1752,499.685 196.6752,496.685 190.1752,498.685 181.6752,502.685"/>
    <polyline points="168.6752,496.185 156.6752,491.185 146.6752,484.185 144.6752,480.185 138.6752,472.185 138.6752,469.185 131.1752,465.185"/>
    <polyline points="91.6752,462.185 90.6752,470.185 90.6752,478.185 90.1752,486.185 90.6752,494.185 92.1752,501.685 95.1752,510.185 99.1752,518.185 103.6752,526.185 109.1752,532.185"/>
    <line x1="101.6752" x2="93.6752" y1="522.185" y2="503.685"/>
    <polyline points="88.6752,511.685 86.1752,503.685 85.1752,495.685"/>
    <polyline points="62.6752,452.685 71.1752,444.685 77.1752,436.685 83.6752,429.185 90.1752,417.685 86.6752,410.685 82.1752,401.185 78.6752,392.685 75.6752,384.685 73.1752,376.685 71.1752,362.685 67.6752,352.185 57.6752,344.185 54.1752,335.685 52.1752,327.685 51.1752,319.185 51.1752,311.185 50.1752,303.185 48.6752,295.185 45.6752,287.185 43.6752,279.185 41.6752,271.185 38.6752,263.185 36.6752,255.185 36.6752,247.685 38.6752,239.685 37.1752,240.685"/>
    <polyline points="39.6752,245.685 47.6752,245.685 39.1752,251.685 40.1752,260.185 43.1752,268.685 46.1752,276.685"/>
    <polyline points="48.6752,273.685 47.6752,265.685 42.1752,259.685"/>
    <line x1="39.6752" x2="47.1752" y1="263.685" y2="286.685"/>
    <line x1="70.6752" x2="78.6752" y1="282.185" y2="301.685"/>
    <polyline points="79.6752,301.185 76.1752,293.185 74.6752,285.185 73.1752,277.185 73.6752,269.185 75.6752,261.685 86.6752,253.185 81.6752,244.185 86.6752,236.185 91.6752,227.685 99.1752,220.685 100.1752,222.685"/>
    <line x1="110.6752" x2="118.6752" y1="225.185" y2="225.185"/>
    <polyline points="126.6752,248.185 135.1752,248.185 142.6752,248.185"/>
    <line x1="143.6752" x2="143.1752" y1="259.685" y2="267.685"/>
    <polyline points="145.6752,261.685 156.1752,269.685 161.1752,263.685 171.1752,253.185 179.1752,256.185 187.1752,258.185 195.1752,258.185 203.1752,256.685 211.1752,254.685 219.6752,252.685 227.1752,250.685 235.6752,248.685 243.6752,247.685 252.1752,246.685 259.6752,246.685 268.1752,247.185 273.6752,248.685 278.6752,246.685 281.1752,248.185 291.1752,250.185 295.1752,254.185 303.1752,255.185 311.6752,262.185"/>
    <polyline points="314.6752,251.185 327.6752,257.185 327.1752,264.685 319.6752,273.185 316.6752,281.185 315.1752,289.185 312.1752,297.685 307.6752,306.185 299.6752,312.185 308.1752,306.685 315.6752,285.685 323.6752,269.685"/>
    <polyline points="340.6752,258.685 342.1752,258.685 333.6752,264.185 334.1752,260.185 331.1752,249.185 341.6752,240.685 340.1752,236.685 342.1752,228.685 341.6752,220.185 335.1752,206.685 333.1752,198.685 341.1752,200.185 333.1752,198.185"/>
    <polyline points="335.6752,204.685 338.6752,203.685 341.6752,212.185"/>
    <line x1="362.6752" x2="370.6752" y1="201.185" y2="201.185"/>
    <polyline points="364.1752,200.685 365.1752,208.685 360.6752,216.185 365.1752,222.685 356.6752,227.685"/>
    <line x1="369.1752" x2="361.1752" y1="243.685" y2="249.185"/>
    <polyline points="367.6752,259.685 375.6752,253.685 372.1752,264.685 374.6752,267.685 374.1752,273.685 374.6752,281.685 370.1752,284.685 371.1752,292.185 370.1752,300.185 369.1752,308.185 365.6752,316.185 365.1752,324.185 361.6752,332.185 359.6752,340.185 353.6752,348.685"/>
    <polyline points="343.1752,318.685 341.1752,310.685 346.1752,306.685 347.1752,298.685 349.1752,290.685 349.6752,283.185 347.6752,275.185 349.1752,266.685 352.6752,258.685 361.6752,253.185 368.6752,245.185 372.6752,237.185 372.6752,229.185 373.6752,221.185 374.1752,212.685 375.1752,204.685 374.6752,196.685 365.6752,196.185 373.6752,191.685 374.1752,183.685 374.1752,175.685 364.1752,174.185 356.1752,168.185"/>
    <polyline points="358.6752,166.685 356.1752,166.685 357.1752,174.685 361.1752,177.685"/>
    <line x1="348.1752" x2="340.1752" y1="192.185" y2="187.185"/>
    <polyline points="331.1752,190.685 338.1752,192.685 346.1752,200.685"/>
    <line x1="346.6752" x2="340.1752" y1="162.185" y2="153.185"/>
    <polyline points="368.6752,135.185 360.6752,120.185 352.6752,105.185 350.1752,90.185 342.1752,74.185 334.1752,66.185 326.6752,59.685 319.1752,49.685 311.1752,45.185 303.1752,41.185 295.1752,45.185"/>
    <polyline points="290.1752,44.685 292.1752,42.685 295.6752,43.685 297.1752,49.685 294.1752,58.185"/>
    <polyline points="285.6752,52.185 293.6752,50.185 301.6752,48.685 316.1752,49.185 324.1752,57.185 332.1752,63.685 340.1752,71.685 346.1752,80.185 348.1752,88.185 342.1752,92.185"/>
    <line x1="331.6752" x2="323.6752" y1="87.685" y2="84.685"/>
    <polyline points="320.1752,94.685 322.1752,89.685 325.1752,91.685 334.1752,89.685"/>
    <polyline points="354.1752,103.685 355.1752,112.185 359.1752,120.185 361.6752,126.185 366.1752,133.685 366.1752,141.685 368.1752,149.185 369.6752,157.185 372.6752,163.185 372.1752,167.685 369.1752,172.685 363.1752,174.685"/>
    <polyline points="376.6752,245.685 378.6752,249.685 379.6752,257.685 377.6752,265.685 376.6752,273.685 376.1752,282.185 373.6752,290.685"/>
    <polyline points="361.6752,311.685 352.1752,310.685 354.1752,302.685 346.1752,300.685"/>
    <line x1="351.1752" x2="352.1752" y1="272.185" y2="264.185"/>
    <polyline points="344.6752,258.185 342.6752,266.185 344.1752,274.185 341.6752,282.185 343.1752,290.185 342.1752,298.185 342.1752,305.685 338.6752,313.685 342.6752,321.685 342.6752,329.685 340.6752,337.685 338.6752,346.185 344.6752,350.185 352.6752,350.185 360.1752,340.685"/>
    <polyline points="279.1752,383.685 279.6752,387.685 277.6752,395.685"/>
    <polyline points="266.1752,390.685 253.6752,395.685 245.6752,399.685 247.1752,406.185 260.1752,392.185"/>
    <polyline points="242.6752,394.185 234.6752,394.185 226.6752,398.185 218.6752,395.185 211.1752,399.185 203.1752,396.185 195.1752,398.685 187.1752,396.685 179.1752,396.685 171.1752,394.685 166.1752,392.685 158.6752,393.685"/>
    <polyline points="153.6752,392.685 157.6752,397.185 162.6752,399.185"/>
    <polyline points="152.1752,400.685 144.1752,395.185 136.1752,391.185"/>
    <polyline points="125.1752,387.185 132.6752,385.185 140.6752,386.685 148.6752,387.685 156.6752,387.685 164.6752,387.685 172.1752,388.685 181.6752,388.685 189.1752,389.685 196.6752,389.685 204.1752,388.685 212.6752,388.185 220.1752,388.185 228.1752,388.185 235.6752,389.185 243.6752,389.685 251.6752,390.685 259.6752,388.185"/>
    <polyline points="240.1752,391.685 238.1752,399.685 240.6752,396.685"/>
    <polyline points="231.1752,399.685 231.1752,407.685 220.1752,412.685"/>
    <polyline points="204.1752,374.185 196.6752,372.185 188.6752,373.185"/>
    <polyline points="212.6752,356.685 206.6752,355.185 198.1752,363.185 196.1752,366.185 204.6752,357.685 212.6752,352.685 220.6752,351.685"/>
    <polyline points="231.1752,349.185 218.6752,359.185 223.1752,360.185 224.1752,356.185 232.1752,348.185"/>
    <polyline points="255.6752,356.185 263.6752,364.185 273.6752,372.685"/>
    <polyline points="272.6752,368.185 265.1752,364.185 257.1752,358.185"/>
    <polyline points="302.1752,304.185 306.6752,296.685 308.6752,288.685 310.1752,280.685 301.6752,276.685 308.1752,278.185 311.1752,269.685 307.6752,261.685 302.6752,251.685 299.6752,242.685 296.6752,240.685 283.6752,236.185 281.6752,225.185 279.6752,215.685 271.6752,218.685"/>
    <polyline points="273.6752,224.185 283.6752,228.685 290.6752,228.185 300.1752,228.185 302.1752,234.185"/>
    <polyline points="296.1752,220.185 290.1752,222.185 282.1752,220.185"/>
    <line x1="265.6752" x2="258.1752" y1="243.685" y2="244.185"/>
    <polyline points="257.6752,250.685 265.1752,251.185 274.6752,252.685 282.6752,252.185 285.6752,258.185 293.1752,265.185"/>
    <polyline points="286.1752,265.685 277.6752,258.685 274.6752,261.685 267.1752,260.685 264.1752,252.185 256.1752,252.185 254.6752,266.185 246.1752,261.185 232.6752,262.185 228.6752,274.685 236.6752,266.685 243.6752,258.685 244.6752,249.685"/>
    <polyline points="242.1752,246.685 246.6752,243.185 254.1752,242.185 262.1752,241.185 267.6752,242.185 275.6752,243.685 283.6752,245.685 291.6752,247.185 299.1752,247.685 307.1752,248.185 315.1752,248.185 323.1752,249.685 331.1752,245.685 339.1752,241.185"/>
    <polyline points="298.6752,229.185 295.6752,232.185 288.6752,229.185 281.6752,234.185 273.6752,231.185 265.6752,229.685 257.1752,228.685 250.1752,227.685 240.1752,232.685 241.1752,231.185 241.6752,223.185 239.6752,226.185 231.6752,221.685"/>
    <polyline points="229.1752,221.685 237.1752,219.685 245.6752,218.685 253.6752,222.685 261.6752,223.185 265.1752,225.185 273.6752,227.185 281.6752,224.685 286.6752,224.685 294.6752,227.185 299.1752,223.185 307.1752,233.185"/>
    <line x1="286.6752" x2="293.6752" y1="257.685" y2="265.685"/>
    <polyline points="278.6752,273.185 276.1752,265.685 276.1752,260.685"/>
    <line x1="272.6752" x2="288.1752" y1="254.685" y2="262.185"/>
    <polyline points="264.6752,275.185 272.1752,267.185 269.1752,271.185 261.1752,276.685 253.1752,272.685"/>
    <polyline points="253.1752,260.185 253.1752,267.685 248.6752,268.685 256.1752,276.685 266.1752,278.685 274.1752,276.685 282.1752,269.185"/>
    <polyline points="303.1752,299.185 295.6752,306.185 287.6752,308.685 280.1752,311.185 272.1752,312.685 264.6752,313.185 256.6752,313.185 248.6752,313.185 240.1752,312.185 232.1752,310.185 224.1752,306.185 217.6752,305.685 209.6752,291.685 202.1752,275.185 193.6752,272.185 185.6752,272.685 177.6752,285.185 169.6752,302.185 161.6752,311.685 155.1752,317.685 153.1752,317.685 159.1752,303.685 166.6752,295.185 168.6752,287.185 172.6752,279.185 173.6752,271.185 169.6752,263.185 157.6752,260.185 153.6752,260.185 153.6752,255.185"/>
    <polyline points="177.6752,260.185 170.6752,248.185 173.6752,241.185 178.6752,239.185 174.6752,235.685 163.6752,228.685 152.6752,226.685 148.6752,234.185 152.6752,227.185 146.1752,226.185 143.1752,225.185"/>
    <polyline points="139.1752,233.185 131.1752,232.185 123.1752,230.685 120.6752,227.685 112.6752,233.185 97.6752,235.185 90.1752,242.185 82.1752,248.185 73.6752,248.185 63.6752,249.185 56.1752,243.685 48.1752,237.685"/>
    <polyline points="67.1752,250.685 63.1752,243.685 61.1752,235.685 61.6752,227.685 62.6752,220.185 65.1752,212.685 63.6752,204.185 70.6752,196.185 70.1752,188.185 70.1752,182.185 70.6752,170.185 70.6752,166.185 74.6752,158.185 77.1752,150.185 80.6752,141.685 83.6752,133.685 87.1752,125.685 92.1752,117.685 96.6752,109.685 102.6752,101.685 110.6752,93.685 103.6752,95.185"/>
    <polyline points="115.6752,97.685 115.6752,95.185 107.1752,103.185 106.1752,104.185 114.1752,96.185 122.1752,94.185 129.6752,92.185"/>
    <polyline points="118.6752,87.185 108.6752,88.685 97.6752,97.185 97.1752,98.185 105.1752,91.685 113.1752,86.185 118.1752,87.185 126.1752,88.185 134.1752,89.685 140.6752,92.185 145.6752,89.185 153.1752,90.185 161.1752,86.685 159.6752,88.685 167.6752,90.185 177.6752,84.685 185.6752,85.685 190.6752,81.185"/>
    <polyline points="194.1752,71.185 188.6752,66.185 181.6752,61.185 181.6752,64.185"/>
    <polyline points="182.1752,62.685 190.1752,67.685 198.6752,68.685 202.6752,74.685 210.6752,71.685 219.1752,70.685 223.1752,67.685 226.1752,71.185 234.6752,77.185"/>
    <polyline points="228.1752,59.185 225.1752,64.185 217.1752,66.185 211.1752,64.185 203.1752,65.185"/>
    <line x1="192.6752" x2="184.1752" y1="53.185" y2="54.185"/>
    <polyline points="182.6752,75.185 174.6752,71.185 171.1752,73.185"/>
    <polyline points="177.6752,82.185 185.1752,77.185 193.1752,78.685 201.6752,79.685 212.6752,80.685 201.6752,88.185 197.6752,96.685"/>
    <line x1="197.6752" x2="189.6752" y1="97.685" y2="95.685"/>
    <polyline points="217.1752,79.185 208.1752,84.185 200.6752,83.185 197.1752,71.185 189.1752,72.685 183.6752,72.185 178.6752,64.685 189.1752,51.685 192.1752,39.185 189.1752,37.185 182.1752,28.185"/>
    <polyline points="183.1752,26.185 190.6752,31.685 194.6752,30.685 194.6752,38.685 197.6752,32.685 210.1752,41.685 218.6752,42.685 223.1752,47.685 236.1752,54.185 242.1752,51.185 238.1752,46.685 237.1752,51.685 233.6752,59.685 238.1752,69.685"/>
    <polyline points="225.6752,80.185 218.1752,76.185 209.1752,77.185 198.1752,84.185 197.6752,86.185 189.6752,89.185 183.6752,91.185 183.1752,97.185 176.1752,91.185 165.6752,99.185 161.1752,97.185 153.1752,95.685 145.1752,99.685 137.1752,102.185 128.6752,92.185 122.1752,79.185 124.1752,71.685 122.6752,63.685"/>
    <polyline points="127.1752,69.185 130.1752,77.185 128.6752,82.185"/>
    <polyline points="148.6752,75.685 146.6752,72.685 137.6752,77.685 145.6752,72.685 145.1752,66.185 149.1752,63.185 146.1752,59.185 151.1752,61.185"/>
    <polyline points="159.6752,74.185 173.6752,71.685 176.6752,73.185 180.6752,81.185 183.6752,85.685 187.6752,98.685 183.6752,101.185 191.6752,97.685"/>
    <polyline points="155.6752,93.185 142.6752,101.685 149.1752,94.685"/>
    <line x1="136.1752" x2="128.1752" y1="103.185" y2="104.185"/>
    <polyline points="129.6752,60.185 121.6752,60.185 120.6752,62.185 113.1752,63.685 105.1752,65.685"/>
    <polyline points="92.1752,64.685 89.1752,66.685 84.1752,69.685 91.6752,62.685"/>
    <polyline points="68.6752,75.685 76.6752,65.685 85.1752,58.185 93.1752,51.185 101.6752,39.185 106.6752,32.185 114.6752,28.185"/>
    <polyline points="113.6752,36.685 121.6752,34.185 129.1752,31.685 135.1752,27.685 143.6752,34.185"/>
    <polyline points="143.1752,25.685 151.1752,27.685 159.1752,32.685"/>
    <polyline points="172.1752,32.685 159.6752,38.685 159.6752,38.185 168.1752,35.685 176.6752,34.685 176.6752,37.185 182.6752,39.185"/>
    <polyline points="206.1752,44.185 213.1752,47.185 219.1752,48.185 222.1752,52.685 225.1752,60.685 232.1752,63.685 237.1752,71.185 238.6752,76.185 244.6752,78.685 246.1752,84.185 251.1752,84.185 260.1752,84.185 265.1752,79.685 273.1752,77.685 282.6752,77.185 282.1752,83.685 271.1752,87.685 268.6752,95.685 274.1752,88.185 282.1752,85.185 289.6752,86.185 299.1752,88.685 305.6752,96.685 313.1752,104.185 321.1752,114.685 329.1752,128.685 337.1752,143.685"/>
    <polyline points="300.6752,100.685 308.6752,108.685 314.1752,116.185 320.1752,123.685 325.6752,131.685 329.6752,139.685 331.6752,147.185 334.6752,154.685 335.6752,162.685 338.6752,167.185 341.6752,175.185 340.6752,179.185 337.1752,184.685 347.1752,191.185 344.1752,204.185 344.1752,201.185"/>
    <polyline points="280.6752,237.185 272.6752,237.685 264.6752,233.685 256.1752,232.685 248.1752,231.685 240.1752,235.685 232.1752,228.685 223.6752,236.685 233.6752,235.185 231.6752,227.185"/>
    <polyline points="228.1752,227.685 224.6752,235.685 231.6752,232.685"/>
    <polyline points="239.1752,222.185 231.1752,222.685 224.1752,230.685 216.1752,237.185"/>
    <line x1="227.1752" x2="206.6752" y1="252.185" y2="259.185"/>
    <line x1="210.1752" x2="218.1752" y1="268.185" y2="258.185"/>
    <polyline points="229.6752,259.185 216.6752,260.685 210.6752,268.685 209.6752,276.185 210.6752,284.185 212.6752,292.185 216.1752,300.185 223.1752,303.685 235.1752,320.685"/>
    <polyline points="221.1752,301.185 219.1752,290.685 216.6752,286.185 215.6752,278.185"/>
    <polyline points="227.6752,266.185 225.6752,273.685 234.6752,266.685 242.6752,258.185"/>
    <polyline points="241.6752,263.685 237.6752,271.685 237.1752,274.185"/>
    <polyline points="198.1752,277.185 205.1752,285.185 208.6752,293.185 212.6752,301.185 217.6752,308.685 224.6752,316.685"/>
    <polyline points="189.6752,272.185 180.1752,280.185 177.1752,288.685 174.6752,296.685 169.6752,305.185 161.6752,307.685"/>
    <line x1="150.6752" x2="142.1752" y1="285.185" y2="288.185"/>
    <polyline points="169.6752,290.685 162.1752,303.185 153.6752,308.685 146.1752,310.685 138.1752,312.185 130.1752,312.185 122.1752,312.185 114.1752,312.185 105.6752,311.185 97.6752,309.185 89.6752,305.685 81.6752,298.685"/>
    <polyline points="84.6752,311.185 76.6752,303.185 72.6752,295.185 69.6752,287.185 67.6752,273.185 59.6752,265.185"/>
    <polyline points="62.1752,267.185 62.6752,275.185 68.6752,277.185 65.6752,286.185 66.1752,295.185 67.1752,303.185 67.1752,309.185"/>
    <line x1="56.1752" x2="64.6752" y1="337.185" y2="348.685"/>
    <polyline points="121.1752,324.185 129.1752,323.185 137.1752,322.185"/>
    <polyline points="136.6752,353.685 128.6752,361.685 120.6752,367.185 115.1752,370.185 114.1752,374.685 118.1752,366.685 125.1752,362.685 134.1752,354.685"/>
    <line x1="156.6752" x2="164.6752" y1="351.185" y2="359.185"/>
    <polyline points="157.6752,352.685 165.6752,351.685 173.1752,354.185 181.1752,354.185"/>
    <polyline points="147.6752,405.685 144.6752,404.685 137.1752,396.685 122.6752,391.685"/>
    <polyline points="121.1752,386.185 123.1752,383.185 131.1752,387.685 149.1752,395.685 152.1752,397.185 155.1752,406.185 163.6752,409.685 171.6752,411.685 179.6752,413.685 189.6752,414.685 197.1752,415.685 205.1752,414.685 213.6752,412.685 221.6752,406.685 229.6752,407.185"/>
    <polyline points="266.1752,458.185 260.1752,466.185 254.1752,476.185 245.6752,482.685 233.1752,484.685 225.1752,492.685 229.1752,478.685 240.1752,487.185 247.1752,482.185 255.1752,472.185 263.1752,461.185"/>
    <polyline points="304.1752,449.185 303.1752,457.185 303.1752,465.185 304.1752,473.185 304.1752,481.685 305.6752,489.685 304.1752,497.685 298.6752,505.685 301.6752,507.185 299.6752,515.185 292.6752,520.685 292.6752,527.185 285.1752,530.185 292.1752,535.185 293.1752,527.185"/>
    <polyline points="307.1752,453.185 312.1752,460.685 316.1752,468.685 320.1752,476.685 323.1752,484.685 341.1752,492.685 358.1752,500.685 369.6752,508.685 381.6752,516.685 393.6752,524.685 408.6752,532.685"/>
    <polyline points="447.6752,535.185 440.1752,534.685 432.1752,534.685 424.1752,534.685 416.1752,534.685 408.1752,530.685 399.6752,525.685 391.6752,520.685 383.6752,516.185 376.1752,511.185 368.1752,505.185 360.6752,500.185 352.6752,496.185 344.6752,492.185 336.6752,488.185 329.1752,486.185 321.1752,471.185 312.6752,457.185 304.6752,450.185"/>
    <polyline points="303.6752,429.685 299.6752,434.185 306.6752,426.185"/>
    <polyline points="453.6752,530.185 453.6752,521.685 453.6752,513.185 453.1752,505.185 453.1752,496.685 453.1752,488.685 453.1752,480.685 453.1752,472.685 453.1752,464.685 453.6752,456.685 453.6752,449.185 453.6752,441.685 453.6752,434.185 453.6752,426.185 454.1752,418.185 454.1752,410.185 454.1752,402.185 454.1752,394.685 454.1752,386.685 454.1752,378.685 453.6752,370.685 454.1752,362.685 454.6752,354.185 454.6752,345.685 454.6752,337.685 455.1752,329.685 454.6752,321.185 454.6752,313.185 454.6752,305.185 454.6752,297.185 454.1752,288.685 453.6752,281.185 453.1752,273.685 452.6752,265.685 452.1752,257.185 452.1752,248.685 452.1752,241.185 452.1752,233.685 452.1752,225.685 452.6752,217.685 452.6752,209.685 453.1752,201.185 453.1752,193.685 453.6752,185.185 454.1752,176.685 454.1752,169.185 454.1752,160.685 454.1752,152.685 454.6752,144.685 454.6752,136.685 454.1752,129.185 454.1752,121.185 453.6752,113.185 453.6752,105.185 453.1752,97.185 453.1752,88.685 453.1752,80.685 453.1752,73.185 453.6752,65.185 453.6752,57.185 453.6752,49.185 453.1752,41.185 453.1752,32.685 452.6752,24.685 444.6752,23.685 436.6752,23.685 429.1752,23.685 421.1752,24.185 413.1752,24.685 405.1752,25.185 397.6752,25.185 389.6752,25.685 382.1752,25.685 374.1752,25.685 366.1752,25.685 358.1752,25.685 350.1752,25.685 342.1752,25.685 333.6752,26.185 325.6752,25.685 317.1752,25.685 309.6752,25.685 301.6752,25.685 294.1752,25.185 286.6752,25.185 278.6752,25.185"/>
    <line x1="278.6752" x2="286.6752" y1="27.185" y2="28.685"/>
    <polyline points="289.1752,36.685 284.1752,39.185 276.1752,39.185"/>
    <polyline points="278.6752,39.185 283.6752,42.685 287.1752,49.685 290.6752,56.185 295.1752,56.185"/>
    <line x1="306.6752" x2="314.6752" y1="63.185" y2="64.185"/>
    <polyline points="292.6752,88.185 284.6752,97.685 289.1752,88.685"/>
    <polyline points="293.6752,98.185 302.6752,93.685 298.6752,91.185 290.6752,92.185 282.6752,99.685 274.1752,96.685"/>
    <polyline points="274.6752,87.685 275.1752,95.685 281.1752,100.685 290.6752,99.685 298.1752,98.685"/>
    <polyline points="274.1752,53.685 278.1752,55.685 274.6752,53.185 270.1752,48.185 267.6752,47.185 267.6752,45.185"/>
    <line x1="255.6752" x2="247.1752" y1="38.685" y2="31.185"/>
    <polyline points="240.6752,52.685 243.6752,60.685 241.6752,68.685 242.1752,74.685 254.6752,75.685 253.6752,83.185 264.6752,83.185 263.6752,90.685"/>
    <polyline points="236.1752,80.185 228.6752,77.685 222.6752,78.185 231.1752,70.685 221.1752,69.185 221.1752,61.185"/>
    <polyline points="144.6752,32.185 136.6752,32.685 129.1752,32.685 120.6752,36.685"/>
    <polyline points="115.6752,41.185 123.6752,39.685 131.1752,39.685 139.1752,37.185"/>
    <polyline points="115.6752,92.685 113.6752,90.685 105.6752,99.685 97.1752,109.685 88.6752,121.185 80.6752,138.185 72.6752,155.185 70.1752,167.185 67.1752,179.185 68.6752,177.185 62.6752,173.685"/>
    <polyline points="75.6752,183.685 67.6752,185.185 67.6752,194.185 66.1752,195.185 74.1752,187.685"/>
    <polyline points="67.6752,197.185 64.1752,210.185 69.1752,202.185 71.1752,201.185 63.1752,211.185"/>
    <polyline points="82.1752,242.685 90.1752,228.685 92.1752,224.685 100.6752,219.685 108.6752,217.185 116.1752,219.185 123.6752,216.185 129.6752,217.185 137.6752,219.185 145.6752,220.185 153.6752,222.185 161.6752,224.185 169.6752,230.185"/>
    <polyline points="165.1752,237.685 164.1752,231.185 164.6752,226.185 159.6752,224.685"/>
    <polyline points="166.1752,253.185 158.1752,251.185 153.1752,248.185 147.1752,245.185 141.1752,242.185 133.1752,241.685 125.1752,242.185 117.1752,244.185 109.1752,244.685 101.6752,246.685 93.6752,248.185 90.1752,250.185"/>
    <line x1="92.1752" x2="107.1752" y1="268.685" y2="282.185"/>
    <polyline points="113.6752,257.185 105.6752,264.185 93.6752,269.185 83.1752,266.685 75.6752,272.685 77.6752,264.685"/>
    <polyline points="73.6752,264.185 81.6752,254.185 89.6752,252.685 97.6752,251.685 103.6752,258.185 104.6752,267.685 105.1752,268.185 112.6752,263.185 114.6752,254.185 123.6752,248.685 127.6752,254.185 136.1752,261.185 142.1752,256.685 150.6752,260.685 158.6752,263.685 166.6752,267.185"/>
    <polyline points="144.6752,276.685 136.6752,278.685 131.1752,280.685 123.1752,275.185 119.1752,267.685 127.1752,266.685 128.1752,258.685"/>
    <line x1="119.6752" x2="108.6752" y1="258.185" y2="266.185"/>
    <polyline points="112.1752,256.685 106.1752,264.685 115.1752,276.685 118.1752,273.185 123.6752,277.685 133.1752,274.685 140.6752,271.685 152.1752,265.185 155.1752,274.185"/>
    <polyline points="109.1752,254.185 102.6752,262.185 103.6752,260.185"/>
    <line x1="94.1752" x2="102.1752" y1="431.685" y2="436.685"/>
    <line x1="100.6752" x2="95.6752" y1="434.185" y2="432.185"/>
    <line x1="34.1752" x2="15.1752" y1="462.685" y2="470.685"/>
    <polyline points="69.1752,346.185 68.1752,338.685 67.1752,331.185 67.1752,322.185 60.6752,315.185 57.6752,307.185 61.6752,298.185 53.6752,290.685 53.6752,282.685 53.6752,274.185 54.6752,266.185 58.1752,260.685 54.1752,259.685 48.6752,254.185 47.6752,244.185 42.6752,236.185 41.6752,228.685 40.1752,220.685 39.1752,213.685 38.1752,206.185 39.1752,198.685 39.6752,190.685 40.1752,182.685 40.1752,174.185 42.1752,166.185 43.1752,158.685 43.1752,150.185 45.1752,142.185 46.1752,133.685 48.6752,125.685 51.6752,117.685 50.6752,109.685 52.6752,101.685 61.1752,93.685 67.1752,87.185 69.6752,79.685 70.6752,73.685 76.6752,65.685 87.6752,57.685 94.6752,49.685 99.6752,42.185 110.6752,32.185 124.1752,32.185 118.1752,25.185 110.1752,25.685 102.1752,25.685 94.1752,25.185 86.6752,25.185 78.6752,25.185 70.6752,25.185 62.6752,25.185 54.6752,25.185 46.6752,25.185 38.6752,25.185 30.6752,25.185 23.1752,25.185 15.1752,24.685 7.1752,24.685 -0.8248,24.685 -9.3248,24.685 -17.8248,24.685 -25.8248,24.685 -33.3248,25.185 -41.3248,25.185 -49.3248,25.185 -57.3248,24.685"/>
  </g>
<plotdata application="axidraw" model="2" layer="-2" node="0" last_path="0" node_after_path="0" last_known_x="0" last_known_y="0" paused_x="0" paused_y="0" randseed="0" row="0" id="1645698997"/></svg>