<?xml version="1.0" encoding="utf-8"?>
<!-- Generator: Adobe Illustrator 26.3.1, SVG Export Plug-In . SVG Version: 6.00 Build 0)  -->
<svg version="1.1"
	 id="svg833" xmlns:svg="http://www.w3.org/2000/svg" xmlns:cc="http://creativecommons.org/ns#" xmlns:dc="http://purl.org/dc/elements/1.1/" xmlns:sodipodi="http://sodipodi.sourceforge.net/DTD/sodipodi-0.dtd" xmlns:inkscape="http://www.inkscape.org/namespaces/inkscape" xmlns:rdf="http://www.w3.org/1999/02/22-rdf-syntax-ns#" sodipodi:docname="Devine Logo hatched.svg" inkscape:version="1.0 (4035a4f, 2020-05-01)"
	 xmlns="http://www.w3.org/2000/svg" xmlns:xlink="http://www.w3.org/1999/xlink" x="0px" y="0px" viewBox="0 0 77 77.9"
	 style="enable-background:new 0 0 77 77.9;" xml:space="preserve">
<style type="text/css">
	.st0{fill:none;stroke:#000000;stroke-width:0.1663;stroke-miterlimit:10;stroke-opacity:0.5587;}
	.st1{fill:none;stroke:#000000;stroke-width:3.0236;stroke-linecap:round;stroke-linejoin:round;stroke-miterlimit:5.3333;}
</style>
<sodipodi:namedview  bordercolor="#666666" borderopacity="1" gridtolerance="10" guidetolerance="10" id="namedview835" inkscape:current-layer="g841" inkscape:cx="478.85207" inkscape:cy="454.6037" inkscape:document-rotation="0" inkscape:pageopacity="0" inkscape:pageshadow="2" inkscape:window-height="954" inkscape:window-maximized="0" inkscape:window-width="1920" inkscape:window-x="1792" inkscape:window-y="172" inkscape:zoom="5.6821709" objecttolerance="10" pagecolor="#ffffff" showgrid="false">
	</sodipodi:namedview>
<g id="g841" transform="matrix(1.33333,0,0,-1.33333,0,1440)" inkscape:label="Devine Logo (1)" inkscape:groupmode="layer">
	<g id="g851" transform="matrix(0.125705,0,0,0.125705,334.047,728.983)">
		<g id="g1479">
			<path id="path853" class="st0" d="M-2499.1,2498.8v280c77.3,0,140-62.7,140-140C-2359.1,2561.5-2421.8,2498.8-2499.1,2498.8
				 M-2354.1,2788.8h-300v-300h300c82.8,0,150,67.2,150,150S-2271.2,2788.8-2354.1,2788.8"/>
			<path id="path1477" class="st0" d="M-2627.5,2488.8l-26.6,26.6 M-2654.1,2549.4l60.6-60.6 M-2559.5,2488.8l-94.6,94.6
				 M-2654.1,2617.5l128.6-128.6 M-2491.4,2488.8l-162.7,162.7 M-2470.4,2501.8l13-13 M-2499.1,2530.5l-155,155 M-2444.5,2509.9
				l21.1-21.1 M-2499.1,2564.5l-155,155 M-2422.3,2521.8l33-33 M-2499.1,2598.5l-155,155 M-2403.4,2536.9l48-48 M-2499.1,2632.6
				l-155,155 M-2387.3,2554.8l63-63 M-2499.1,2666.6l-122.3,122.3 M-2374.2,2575.7l76.1-76.1 M-2499.1,2700.6l-88.2,88.2
				 M-2364.6,2600.1l89-89 M-2499.1,2734.6l-54.2,54.2 M-2359.5,2629l103.5-103.5 M-2499.1,2768.6l-20.2,20.2 M-2361.6,2665.2
				l122.6-122.6 M-2472.7,2776.3l-12.6,12.6 M-2398.4,2736l173.4-173.4 M-2401.9,2739.5l-49.3,49.3 M-2417.2,2788.8l203.4-203.4
				 M-2206.5,2612.1l-176.7,176.7 M-2349.1,2788.7l144.9-144.9 M-2211.3,2685l-96.6,96.6"/>
		</g>
	</g>
	<g id="g3359" transform="translate(0,9.5279919)">
		<path id="path3254" class="st1" d="M1.5,1020v-6.2 M1.5,1020h3.2l1.4-0.3l0.9-0.6l0.5-0.6l0.5-0.9v-1.5l-0.5-0.9l-0.5-0.6L6,1014
			l-1.4-0.3H1.5"/>
		<path id="path3256" class="st1" d="M11.6,1020v-6.2 M11.6,1020h5.9 M11.6,1017h3.6 M11.6,1013.7h5.9"/>
		<path id="path3258" class="st1" d="M20.6,1020l3.6-6.2 M27.8,1020l-3.6-6.2"/>
		<path id="path3260" class="st1" d="M31.7,1020v-6.2"/>
		<path id="path3262" class="st1" d="M36.7,1020v-6.2 M36.7,1020l6.3-6.2 M43,1020v-6.2"/>
		<path id="path3264" class="st1" d="M47.6,1020v-6.2 M47.6,1020h5.9 M47.6,1017h3.6 M47.6,1013.7h5.9"/>
	</g>
</g>
</svg>
